<svg xmlns="http://www.w3.org/2000/svg" xmlns:xlink="http://www.w3.org/1999/xlink" width="64" zoomAndPan="magnify" viewBox="0 0 48 48" height="64" preserveAspectRatio="xMidYMid meet" version="1.2"><defs><clipPath id="8dd0543dd7"><path d="M 10.914062 3.097656 L 37 3.097656 L 37 40.765625 L 10.914062 40.765625 Z M 10.914062 3.097656 "/></clipPath><clipPath id="a57ea75d97"><path d="M 24.667969 3.644531 L 27.820312 13.351562 C 28.261719 14.707031 29.144531 15.878906 30.332031 16.675781 L 36.339844 20.707031 C 36.75 20.980469 36.992188 21.441406 36.992188 21.933594 C 36.992188 22.425781 36.75 22.886719 36.339844 23.160156 L 30.332031 27.191406 C 29.144531 27.988281 28.261719 29.15625 27.820312 30.515625 L 24.667969 40.222656 C 24.574219 40.515625 24.296875 40.714844 23.988281 40.714844 C 23.679688 40.714844 23.402344 40.515625 23.308594 40.222656 L 20.15625 30.515625 C 19.714844 29.15625 18.832031 27.988281 17.644531 27.191406 L 11.636719 23.160156 C 11.226562 22.886719 10.984375 22.425781 10.984375 21.933594 C 10.984375 21.441406 11.226562 20.980469 11.636719 20.707031 L 17.644531 16.675781 C 18.832031 15.878906 19.714844 14.707031 20.15625 13.351562 L 23.308594 3.644531 C 23.402344 3.347656 23.679688 3.148438 23.988281 3.148438 C 24.296875 3.148438 24.574219 3.347656 24.667969 3.644531 Z M 24.667969 3.644531 "/></clipPath></defs><g id="fe6ec0b917"><g clip-rule="nonzero" clip-path="url(#8dd0543dd7)"><g clip-rule="nonzero" clip-path="url(#a57ea75d97)"><path style=" stroke:none;fill-rule:nonzero;fill:#4fc3f7;fill-opacity:1;" d="M 9.808594 1.546875 L 38.167969 1.546875 L 38.167969 42.320312 L 9.808594 42.320312 Z M 9.808594 1.546875 "/></g></g><g style="fill:#faff93;fill-opacity:1;"><g transform="translate(1.063775, 29.757454)"><path style="stroke:none" d="M 11.390625 6.671875 C 11.304688 6.671875 11.222656 6.671875 11.140625 6.671875 C 11.066406 6.671875 10.988281 6.660156 10.90625 6.640625 C 9.289062 6.304688 8.046875 5.847656 7.171875 5.265625 C 6.304688 4.679688 5.703125 3.96875 5.359375 3.125 C 5.023438 2.289062 4.859375 1.359375 4.859375 0.328125 L 4.921875 -3.03125 C 4.921875 -3.875 4.789062 -4.554688 4.53125 -5.078125 C 4.28125 -5.609375 3.9375 -6 3.5 -6.25 C 3.0625 -6.507812 2.554688 -6.648438 1.984375 -6.671875 L 1.84375 -6.671875 C 1.425781 -6.671875 1.066406 -6.8125 0.765625 -7.09375 C 0.472656 -7.382812 0.328125 -7.75 0.328125 -8.1875 C 0.328125 -8.632812 0.472656 -9 0.765625 -9.28125 C 1.066406 -9.570312 1.425781 -9.71875 1.84375 -9.71875 L 2.046875 -9.71875 C 2.597656 -9.757812 3.085938 -9.90625 3.515625 -10.15625 C 3.941406 -10.40625 4.28125 -10.796875 4.53125 -11.328125 C 4.789062 -11.859375 4.921875 -12.53125 4.921875 -13.34375 L 4.859375 -16.71875 C 4.859375 -17.488281 4.953125 -18.207031 5.140625 -18.875 C 5.328125 -19.550781 5.640625 -20.148438 6.078125 -20.671875 C 6.515625 -21.203125 7.125 -21.664062 7.90625 -22.0625 C 8.6875 -22.457031 9.6875 -22.773438 10.90625 -23.015625 C 11.519531 -23.128906 11.976562 -23.023438 12.28125 -22.703125 C 12.59375 -22.390625 12.75 -22.007812 12.75 -21.5625 C 12.75 -21.28125 12.644531 -21.015625 12.4375 -20.765625 C 12.226562 -20.523438 11.957031 -20.351562 11.625 -20.25 C 10.75 -19.9375 10.085938 -19.597656 9.640625 -19.234375 C 9.203125 -18.878906 8.910156 -18.453125 8.765625 -17.953125 C 8.628906 -17.453125 8.5625 -16.851562 8.5625 -16.15625 L 8.625 -12.71875 C 8.625 -11.4375 8.300781 -10.4375 7.65625 -9.71875 C 7.019531 -9.007812 6.148438 -8.476562 5.046875 -8.125 L 5.046875 -8.25 C 6.148438 -7.90625 7.019531 -7.375 7.65625 -6.65625 C 8.300781 -5.9375 8.625 -4.941406 8.625 -3.671875 L 8.5625 -0.234375 C 8.5625 0.453125 8.628906 1.035156 8.765625 1.515625 C 8.910156 2.003906 9.203125 2.429688 9.640625 2.796875 C 10.085938 3.160156 10.75 3.515625 11.625 3.859375 C 12.375 4.148438 12.75 4.613281 12.75 5.25 C 12.75 5.625 12.613281 5.953125 12.34375 6.234375 C 12.082031 6.523438 11.765625 6.671875 11.390625 6.671875 Z M 11.390625 6.671875 "/></g></g><g style="fill:#faff93;fill-opacity:1;"><g transform="translate(46.934756, 14.299347)"><path style="stroke:none" d="M -11.4375 -6.6875 C -11.34375 -6.6875 -11.253906 -6.6875 -11.171875 -6.6875 C -11.097656 -6.6875 -11.019531 -6.675781 -10.9375 -6.65625 C -9.320312 -6.332031 -8.078125 -5.875 -7.203125 -5.28125 C -6.335938 -4.695312 -5.734375 -3.984375 -5.390625 -3.140625 C -5.046875 -2.304688 -4.875 -1.367188 -4.875 -0.328125 L -4.9375 3.046875 C -4.9375 3.890625 -4.804688 4.578125 -4.546875 5.109375 C -4.296875 5.640625 -3.945312 6.03125 -3.5 6.28125 C -3.0625 6.53125 -2.554688 6.664062 -1.984375 6.6875 L -1.859375 6.6875 C -1.429688 6.6875 -1.066406 6.832031 -0.765625 7.125 C -0.472656 7.414062 -0.328125 7.78125 -0.328125 8.21875 C -0.328125 8.65625 -0.472656 9.019531 -0.765625 9.3125 C -1.066406 9.601562 -1.429688 9.75 -1.859375 9.75 L -2.0625 9.75 C -2.613281 9.789062 -3.101562 9.9375 -3.53125 10.1875 C -3.957031 10.445312 -4.296875 10.835938 -4.546875 11.359375 C -4.804688 11.890625 -4.9375 12.566406 -4.9375 13.390625 L -4.875 16.765625 C -4.875 17.535156 -4.96875 18.257812 -5.15625 18.9375 C -5.34375 19.613281 -5.65625 20.21875 -6.09375 20.75 C -6.539062 21.28125 -7.15625 21.742188 -7.9375 22.140625 C -8.71875 22.535156 -9.71875 22.851562 -10.9375 23.09375 C -11.550781 23.207031 -12.015625 23.101562 -12.328125 22.78125 C -12.640625 22.457031 -12.796875 22.078125 -12.796875 21.640625 C -12.796875 21.347656 -12.6875 21.082031 -12.46875 20.84375 C -12.257812 20.601562 -11.992188 20.425781 -11.671875 20.3125 C -10.785156 20 -10.117188 19.660156 -9.671875 19.296875 C -9.234375 18.929688 -8.941406 18.5 -8.796875 18 C -8.648438 17.507812 -8.578125 16.910156 -8.578125 16.203125 L -8.65625 12.765625 C -8.65625 11.484375 -8.332031 10.484375 -7.6875 9.765625 C -7.050781 9.046875 -6.179688 8.507812 -5.078125 8.15625 L -5.078125 8.28125 C -6.179688 7.925781 -7.050781 7.390625 -7.6875 6.671875 C -8.332031 5.953125 -8.65625 4.953125 -8.65625 3.671875 L -8.578125 0.234375 C -8.578125 -0.453125 -8.648438 -1.035156 -8.796875 -1.515625 C -8.941406 -2.003906 -9.234375 -2.429688 -9.671875 -2.796875 C -10.117188 -3.160156 -10.785156 -3.519531 -11.671875 -3.875 C -12.421875 -4.164062 -12.796875 -4.628906 -12.796875 -5.265625 C -12.796875 -5.640625 -12.660156 -5.96875 -12.390625 -6.25 C -12.128906 -6.539062 -11.8125 -6.6875 -11.4375 -6.6875 Z M -11.4375 -6.6875 "/></g></g></g></svg>